#!OML:ASF F:\VICON\USERDATA\INSTALL\rory3\rory3.ASF
:FULLY-SPECIFIED
:DEGREES
67
root 0.688153 17.3505 2.42203 4.77882 -4.3861 -4.65443
lowerback 17.1994 -1.54282 4.1688
upperback 2.52299 -1.10398 2.16113
thorax -6.96745 -0.617373 0.199933
lowerneck -2.29524 2.67634 0.697948
upperneck -12.3045 3.23944 -3.69821
head -3.49669 1.7067 -1.40723
rclavicle 3.65764e-014 -3.22031e-014
rhumerus -20.3827 12.5258 -81.5884
rradius 89.2863
rwrist -2.14452
rhand -38.7624 31.7385
rfingers 7.12502
rthumb -11.7745 2.08951
lclavicle 3.65764e-014 -3.22031e-014
lhumerus -49.2039 -16.3375 94.2006
lradius 108.351
lwrist 26.1604
lhand -36.3839 10.709
lfingers 7.12502
lthumb -9.48023 40.4758
rfemur -17.5261 3.55996 30.5182
rtibia 42.6919
rfoot -17.0014 -8.42272
rtoes -9.9559
lfemur -18.9793 12.5603 -10.239
ltibia 114.007
lfoot 21.4756 -10.8464
ltoes -3.94319
68
root 0.678674 17.3207 2.88152 5.00847 -4.09247 -4.91218
lowerback 17.0038 -1.42404 4.4394
upperback 2.60754 -0.910659 2.20662
thorax -6.76727 -0.526533 0.0452852
lowerneck -2.37314 2.45095 0.587461
upperneck -12.2802 2.96347 -3.4167
head -3.48557 1.5642 -1.2875
rclavicle 4.37326e-015 6.75868e-015
rhumerus -18.2193 12.1231 -81.5758
rradius 90.4087
rwrist -1.83429
rhand -39.5711 32.6659
rfingers 7.12502
rthumb -12.5543 3.0631
lclavicle 4.37326e-015 6.75868e-015
lhumerus -50.4543 -15.7892 94.7158
lradius 108.123
lwrist 27.5031
lhand -37.7358 11.2108
lfingers 7.12502
lthumb -10.7845 40.9139
rfemur -15.7726 3.55732 30.8094
rtibia 42.3144
rfoot -17.8575 -8.91177
rtoes -13.7789
lfemur -23.1734 12.4108 -10.3813
ltibia 115.618
lfoot 18.8982 -11.811
ltoes -12.5251
69
root 0.660074 17.3167 3.35034 5.31619 -4.39697 -5.26194
lowerback 17.032 -1.02912 4.50621
upperback 2.38913 -0.36236 2.28125
thorax -6.99981 -0.2674 -0.0331533
lowerneck -2.3835 2.1857 0.696811
upperneck -11.7454 2.62432 -3.37333
head -3.30393 1.38654 -1.27468
rclavicle -2.27608e-014 1.09332e-014
rhumerus -16.9738 11.6649 -81.7074
rradius 91.7618
rwrist -1.56355
rhand -39.4737 32.9017
rfingers 7.12502
rthumb -12.4604 3.29312
lclavicle -2.27608e-014 1.09332e-014
lhumerus -52.0295 -15.3006 95.3149
lradius 107.847
lwrist 28.417
lhand -40.7305 12.911
lfingers 7.12502
lthumb -13.6719 42.4419
rfemur -13.9172 4.04653 31.19
rtibia 41.7188
rfoot -18.0164 -9.0386
rtoes -15.8486
lfemur -26.9051 12.8295 -10.366
ltibia 116.54
lfoot 15.0784 -11.3056
ltoes -23.3427
70
root 0.637761 17.3329 3.82242 5.89721 -5.29375 -5.95697
lowerback 16.9374 -0.37125 4.61474
upperback 2.05 0.545848 2.46259
thorax -7.28347 0.162694 -0.104393
lowerneck -2.63761 1.96369 0.794572
upperneck -10.8385 2.34903 -3.36314
head -2.95045 1.2383 -1.26226
rclavicle 2.28602e-015 3.77691e-014
rhumerus -15.9517 11.2014 -81.8309
rradius 93.1616
rwrist -1.49979
rhand -39.071 33.3115
rfingers 7.12502
rthumb -12.0721 3.67975
lclavicle 2.28602e-015 3.77691e-014
lhumerus -53.6116 -14.8369 96.0062
lradius 107.51
lwrist 29.1669
lhand -39.1422 11.8346
lfingers 7.12502
lthumb -12.1407 41.4624
rfemur -12.0896 5.12764 31.8463
rtibia 40.6564
rfoot -17.8251 -8.71817
rtoes -17.465
lfemur -30.3439 14.0258 -9.85004
ltibia 116.865
lfoot 14.9832 -10.0553
ltoes -19.478
71
root 0.615071 17.3846 4.30293 6.14614 -5.97005 -6.43845
lowerback 17.1338 0.221472 4.70443
upperback 1.84312 1.36619 2.4673
thorax -7.58436 0.547902 -0.338138
lowerneck -2.94074 1.65043 0.87649
upperneck -10.0312 1.9596 -3.20712
head -2.6317 1.02998 -1.20227
rclavicle -1.04362e-015 -1.90833e-014
rhumerus -14.8077 10.7117 -81.9383
rradius 94.3394
rwrist -1.3468
rhand -39.5025 33.795
rfingers 7.12502
rthumb -12.4882 4.18812
lclavicle -1.04362e-015 -1.90833e-014
lhumerus -55.0613 -14.6317 96.4099
lradius 107.378
lwrist 29.8412
lhand -37.7937 9.94722
lfingers 7.12502
lthumb -10.8403 39.6474
rfemur -9.74812 5.94424 32.3229
rtibia 39.1966
rfoot -16.9119 -8.71097
rtoes -20.0886
lfemur -33.2133 14.6699 -9.71912
ltibia 116.453
lfoot 14.4027 -9.28886
ltoes -16.8609
72
root 0.603721 17.4698 4.79733 6.14578 -5.75007 -6.47774
lowerback 17.5255 0.464549 4.82475
upperback 1.62649 1.73273 2.28632
thorax -8.01221 0.706095 -0.691488
lowerneck -3.03561 1.33536 0.9326
upperneck -9.57943 1.57803 -2.78657
head -2.47373 0.824184 -1.06443
rclavicle -5.81445e-015 1.66979e-014
rhumerus -13.8118 10.2754 -82.0903
rradius 95.3764
rwrist -1.06248
rhand -40.0658 34.2415
rfingers 7.12502
rthumb -13.0312 4.66851
lclavicle -5.81445e-015 1.66979e-014
lhumerus -56.4165 -14.519 96.6914
lradius 107.322
lwrist 30.22
lhand -36.7159 8.14219
lfingers 7.12502
lthumb -9.80055 37.8941
rfemur -7.13581 5.9466 32.3903
rtibia 37.4692
rfoot -15.267 -8.58134
rtoes -21.0891
lfemur -36.0811 13.7448 -10.5209
ltibia 115.363
lfoot 13.9089 -8.17768
ltoes -15.7659
73
root 0.59909 17.5656 5.30383 6.22154 -5.31188 -6.63589
lowerback 17.6447 0.581673 5.26117
upperback 1.52603 1.96698 2.0672
thorax -8.15419 0.795174 -1.2322
lowerneck -3.61172 1.09367 1.26191
upperneck -8.87298 1.27044 -2.6522
head -2.14393 0.650542 -1.06002
rclavicle -1.32689e-014 3.38928e-014
rhumerus -12.7411 9.71684 -82.3529
rradius 96.2843
rwrist -0.630662
rhand -40.1504 34.1188
rfingers 7.12502
rthumb -13.1127 4.55105
lclavicle -1.32689e-014 3.38928e-014
lhumerus -57.4737 -14.5499 96.8131
lradius 107.22
lwrist 30.2832
lhand -37.7124 11.4158
lfingers 7.12502
lthumb -10.7619 41.1201
rfemur -4.58114 5.78475 32.5553
rtibia 35.5987
rfoot -13.3824 -7.80834
rtoes -20.7176
lfemur -38.8474 12.3501 -11.166
ltibia 113.812
lfoot 13.6584 -6.46921
ltoes -12.5865
74
root 0.595715 17.6568 5.81571 6.39793 -5.01804 -6.54427
lowerback 17.5286 0.768475 5.36271
upperback 1.50911 2.20759 1.8601
thorax -8.08186 0.905531 -1.56737
lowerneck -4.57148 0.911228 1.2065
upperneck -8.0808 1.04977 -2.39553
head -1.72601 0.529018 -0.951005
rclavicle -2.44505e-014 1.72446e-014
rhumerus -11.5812 9.43457 -82.4355
rradius 97.0569
rwrist -0.398555
rhand -39.9416 33.3601
rfingers 7.12502
rthumb -12.9115 3.77957
lclavicle -2.44505e-014 1.72446e-014
lhumerus -58.2207 -14.4407 96.9156
lradius 107.107
lwrist 30.5028
lhand -39.3744 13.4324
lfingers 7.12502
lthumb -12.3646 43.0468
rfemur -2.2124 5.72516 32.3878
rtibia 33.6472
rfoot -11.1334 -6.86752
rtoes -21.7868
lfemur -41.5086 11.0924 -11.9862
ltibia 111.965
lfoot 13.1232 -4.65349
ltoes -10.1925
75
root 0.606343 17.7309 6.33993 6.84123 -4.52913 -6.54248
lowerback 16.9806 0.783783 5.77207
upperback 1.3658 2.26005 1.69316
thorax -7.90845 0.917698 -1.97727
lowerneck -5.0049 0.785304 0.900242
upperneck -7.77118 0.914178 -2.01369
head -1.55716 0.460967 -0.77334
rclavicle 4.22169e-014 -3.67752e-015
rhumerus -10.777 9.60039 -82.4435
rradius 97.8648
rwrist -0.503047
rhand -39.7918 32.8202
rfingers 7.12502
rthumb -12.7671 3.23051
lclavicle 4.22169e-014 -3.67752e-015
lhumerus -59.131 -13.9704 97.0181
lradius 107.055
lwrist 30.8556
lhand -39.1268 10.7563
lfingers 7.12502
lthumb -12.1259 40.3849
rfemur -0.0172626 5.55869 32.2492
rtibia 31.464
rfoot -8.52114 -5.95732
rtoes -22.7195
lfemur -44.2022 9.57127 -12.7006
ltibia 109.827
lfoot 12.2003 -2.87494
ltoes -9.13105
76
root 0.614252 17.8283 6.87848 7.36515 -4.04987 -6.48104
lowerback 16.2276 0.791767 6.0561
upperback 1.16131 2.26346 1.5245
thorax -7.69444 0.911447 -2.30073
lowerneck -5.16327 0.727048 0.720916
upperneck -7.55736 0.858759 -1.75494
head -1.4642 0.433498 -0.660003
rclavicle -1.25234e-014 1.02623e-014
rhumerus -10.2107 10.0103 -82.4571
rradius 98.5264
rwrist -0.671782
rhand -39.5585 32.1727
rfingers 7.12502
rthumb -12.5422 2.56919
lclavicle -1.25234e-014 1.02623e-014
lhumerus -60.1458 -13.4111 97.0858
lradius 107.059
lwrist 31.338
lhand -37.6393 6.89442
lfingers 7.12502
lthumb -10.6913 36.6024
rfemur 2.04574 5.54983 32.0621
rtibia 29.251
rfoot -5.52088 -5.10558
rtoes -22.8749
lfemur -46.925 8.04842 -13.3079
ltibia 107.128
lfoot 11.3862 -1.61099
ltoes -10.6732
77
root 0.60766 17.9668 7.43569 7.82528 -3.74178 -6.39532
lowerback 15.4445 0.923073 6.10432
upperback 0.994371 2.37986 1.34602
thorax -7.41973 0.97045 -2.52273
lowerneck -5.17679 0.576189 0.495743
upperneck -7.29293 0.685703 -1.41253
head -1.38125 0.347959 -0.514995
rclavicle -1.32875e-014 -6.15611e-015
rhumerus -9.88342 10.4478 -82.4272
rradius 99.218
rwrist -1.22923
rhand -39.6568 32.4381
rfingers 7.12502
rthumb -12.6369 2.84033
lclavicle -1.32875e-014 -6.15611e-015
lhumerus -60.9865 -12.9934 97.0859
lradius 106.98
lwrist 32.1964
lhand -37.0109 5.37426
lfingers 7.12502
lthumb -10.0852 35.1126
rfemur 4.0777 5.84671 31.9317
rtibia 26.9605
rfoot -1.79372 -4.47789
rtoes -21.9438
lfemur -49.2903 6.66508 -13.636
ltibia 103.728
lfoot 10.0918 -0.707944
ltoes -16.6216
78
root 0.602059 18.0488 7.98521 8.35173 -3.48693 -6.40324
lowerback 14.6549 1.13253 6.31423
upperback 0.589659 2.63685 1.13923
thorax -7.37482 1.07962 -2.89404
lowerneck -4.55083 0.300127 0.353934
upperneck -7.17199 0.334105 -1.1987
head -1.45138 0.174941 -0.428015
rclavicle -1.69029e-014 -1.54555e-014
rhumerus -10.1687 10.8312 -82.4133
rradius 99.6947
rwrist -1.98402
rhand -40.5329 35.3606
rfingers 7.12502
rthumb -13.4814 5.8169
lclavicle -1.69029e-014 -1.54555e-014
lhumerus -62.5076 -12.73 97.3556
lradius 107.103
lwrist 33.1536
lhand -37.1267 4.37921
lfingers 7.12502
lthumb -10.1969 34.1121
rfemur 6.00974 6.10201 31.8515
rtibia 24.613
rfoot 2.34858 -3.99061
rtoes -20.1037
lfemur -50.8912 5.58884 -13.7318
ltibia 100.428
lfoot 10.9531 -0.122807
ltoes -11.5783
79
root 0.597421 18.1215 8.53684 8.86269 -3.27519 -6.36877
lowerback 14.0534 1.30899 6.48189
upperback 0.0808925 2.8585 0.887179
thorax -7.54529 1.16122 -3.2879
lowerneck -3.90639 0.176018 0.396765
upperneck -6.97752 0.174782 -1.09494
head -1.49966 0.0944224 -0.404087
rclavicle -2.17918e-014 -8.49804e-015
rhumerus -10.5453 11.5247 -82.4353
rradius 100.133
rwrist -3.04069
rhand -40.659 36.8811
rfingers 7.12502
rthumb -13.603 7.34551
lclavicle -2.17918e-014 -8.49804e-015
lhumerus -64.1546 -12.3225 97.5075
lradius 107.421
lwrist 34.3846
lhand -37.7791 6.40592
lfingers 7.12502
lthumb -10.8262 36.1069
rfemur 7.93126 6.57854 31.746
rtibia 22.2076
rfoot 7.17054 -4.23022
rtoes -15.5522
lfemur -52.2292 4.57722 -13.7398
ltibia 96.9461
lfoot 11.6054 0.272194
ltoes -8.12118
80
root 0.591979 18.1974 9.09472 9.28488 -2.61051 -6.28971
lowerback 13.4053 1.27501 6.64699
upperback -0.295289 2.79162 0.671481
thorax -7.5747 1.11059 -3.5801
lowerneck -4.01473 0.15807 0.281735
upperneck -6.32859 0.175475 -0.72103
head -1.27604 0.0912851 -0.267492
rclavicle 7.95139e-015 1.28216e-014
rhumerus -10.8473 12.4393 -82.3876
rradius 100.738
rwrist -4.00981
rhand -40.5589 37.1014
rfingers 7.12502
rthumb -13.5065 7.55942
lclavicle 7.95139e-015 1.28216e-014
lhumerus -65.5327 -11.7585 97.5167
lradius 107.847
lwrist 35.7189
lhand -39.1215 12.0029
lfingers 7.12502
lthumb -12.1208 41.6318
rfemur 9.86616 6.44893 31.7689
rtibia 19.8388
rfoot 12.7279 -5.13759
rtoes -8.93241
lfemur -53.499 3.22501 -13.614
ltibia 93.1975
lfoot 12.1334 0.298156
ltoes -8.25605
81
root 0.586836 18.2749 9.66307 9.54051 -1.77185 -6.05314
lowerback 12.697 1.20512 6.70444
upperback -0.44874 2.64071 0.430311
thorax -7.34122 1.0374 -3.81679
lowerneck -4.54414 0.0593684 0.0631104
upperneck -5.54685 0.0718134 -0.241705
head -0.94489 0.0379552 -0.0834415
rclavicle 1.11319e-014 3.77691e-015
rhumerus -11.0386 13.2693 -82.2375
rradius 101.508
rwrist -4.68853
rhand -40.4846 36.7481
rfingers 7.12502
rthumb -13.4349 7.20136
lclavicle 1.11319e-014 3.77691e-015
lhumerus -66.42 -11.3748 97.5217
lradius 108.121
lwrist 36.8459
lhand -39.4766 16.2106
lfingers 7.12502
lthumb -12.4632 45.819
rfemur 12.0381 6.09024 31.7004
rtibia 17.3363
rfoot 18.1656 -7.04984
rtoes -2.37249
lfemur -54.3622 1.72977 -13.5568
ltibia 89.0383
lfoot 11.2458 -0.850433
ltoes -12.0504
